<?xml version="1.0" standalone="no"?><!DOCTYPE svg PUBLIC "-//W3C//DTD SVG 1.1//EN" "http://www.w3.org/Graphics/SVG/1.1/DTD/svg11.dtd"><svg t="1604900006857" class="icon" viewBox="0 0 1024 1024" version="1.1" xmlns="http://www.w3.org/2000/svg" p-id="17943" xmlns:xlink="http://www.w3.org/1999/xlink" width="200" height="200"><defs><style type="text/css"></style></defs><path d="M512 512m-448 0a448 448 0 1 0 896 0 448 448 0 1 0-896 0Z" fill="#FFFFFF" p-id="17944"></path><path d="M512 512m-192 0a192 192 0 1 0 384 0 192 192 0 1 0-384 0Z" fill="#0C9FE5" p-id="17945"></path><path d="M512 32a480 480 0 1 0 0 960 480 480 0 0 0 0-960z m0 64a416 416 0 1 1 0 832 416 416 0 0 1 0-832z" fill="#098FD7" p-id="17946"></path></svg>